<svg width="120" height="32" viewBox="0 0 120 32" fill="none" xmlns="http://www.w3.org/2000/svg">
  <!-- Logo Background -->
  <rect x="0" y="0" width="32" height="32" rx="4" fill="#25A55F"/>
  
  <!-- Letter "E" -->
  <path d="M8 8H24V12H12V14H22V18H12V20H24V24H8V8Z" fill="white"/>
  
  <!-- EcoLedger Text -->
  <path d="M40 12H44V20H40V12ZM40 8H44V10.5H40V8Z" fill="#25A55F"/>
  <path d="M46 12H49.5C51.5 12 53 13.5 53 15.5C53 17.5 51.5 19 49.5 19H47.5V23H46V12ZM49.5 18C50.9 18 52 16.9 52 15.5C52 14.1 50.9 13 49.5 13H47.5V18H49.5Z" fill="#25A55F"/>
  <path d="M54 15.5C54 13.5 55.5 12 57.5 12H60C62 12 63.5 13.5 63.5 15.5C63.5 17.5 62 19 60 19H57.5C55.5 19 54 17.5 54 15.5ZM60 18C61.4 18 62.5 16.9 62.5 15.5C62.5 14.1 61.4 13 60 13H57.5C56.1 13 55 14.1 55 15.5C55 16.9 56.1 18 57.5 18H60Z" fill="#25A55F"/>
  <path d="M65 8H66.5V23H65V8Z" fill="#25A55F"/>
  <path d="M68 12H71.5C73.5 12 75 13.5 75 15.5C75 17.5 73.5 19 71.5 19H69.5V23H68V12ZM71.5 18C72.9 18 74 16.9 74 15.5C74 14.1 72.9 13 71.5 13H69.5V18H71.5Z" fill="#25A55F"/>
  <path d="M76 12H80C82 12 83.5 13.5 83.5 15.5C83.5 17 82.5 18.2 81.2 18.8L84 23H82.2L79.5 19H77.5V23H76V12ZM80 18C81.4 18 82.5 16.9 82.5 15.5C82.5 14.1 81.4 13 80 13H77.5V18H80Z" fill="#25A55F"/>
  <path d="M85 12H91V13H86V16.5H90V17.5H86V22H91V23H85V12Z" fill="#25A55F"/>
  <path d="M92 12H98V13H93V16.5H97V17.5H93V22H98V23H92V12Z" fill="#25A55F"/>
  <path d="M99 12H105.5V13H100V17H104.5V18H100V22H105.5V23H99V12Z" fill="#25A55F"/>
  <path d="M107 12H108V22H113V23H107V12Z" fill="#25A55F"/>
  <path d="M119 12H120V23H119V14L115 20H114.5L110.5 14V23H109.5V12H110.5L114.75 19L119 12Z" fill="#25A55F"/>
</svg> 